<?xml version='1.0' encoding='utf-8'?>
<svg xmlns="http://www.w3.org/2000/svg" viewBox="333.49 721.64 217.39 234.29" version="1.1" style="fill-rule:evenodd;clip-rule:evenodd;stroke-linejoin:round;stroke-miterlimit:2;"><g>
        <path d="M413.392,930.655C412.114,930.963 409.366,931.437 408.608,930.049C404.186,926.82 374.052,927.174 383.097,905.117C384.406,901.924 385.54,903.557 387.861,906.094C388.515,906.809 393.537,907.916 390.582,902.063C381.387,883.851 385.676,857.841 400.741,839.272C418.687,817.15 426.251,817.062 418.236,787.9C413.673,771.297 423.495,756.933 436.039,751.864C442.024,749.445 441.096,747.224 447.423,746.492C450.161,746.175 453.557,739.558 454.637,744.034C456.13,750.225 459.485,746.165 467.962,748.527C494.322,755.872 473.935,780.67 511.536,804.703C542.117,824.249 537.535,883.937 521.584,903.108C504.625,923.491 471.338,927.192 459.197,926.853L454.832,927.098C449.126,928.655 447.476,927.34 445.958,933.098C445.592,933.154 443.283,933.508 441.374,933.675C427.646,935.579 427.671,934.818 413.937,933.838C413.355,931.776 413.261,930.966 413.392,930.655C413.796,930.557 414.053,930.476 414.053,930.476C413.777,930.485 413.503,930.39 413.392,930.655ZM455.772,896.442C453.802,897.031 452.796,896.299 451.693,900.746C452.023,904.633 451.799,904.56 450.19,908.028C454.619,908.542 454.634,907.604 456.403,903.605L455.772,896.442ZM458.153,904.551C457.718,907.798 457.184,907.904 458.161,908.99C459.564,910.549 459.796,909.351 462.131,908.042L458.153,904.551Z" style="fill:rgb(173,125,93);" />
        <path d="M404.443,932.949C389.647,932.945 380.832,922.597 378.66,922.751C370.769,923.311 368.752,926.319 352.842,910.392C349.559,907.105 338.335,898.984 354.747,886.822C357.774,884.579 358.297,885.769 361.477,883.699C372.238,876.694 374.17,910.866 378.371,904.862C384.509,896.087 382.018,895.278 381.304,884.602C378.133,837.179 421.653,825.051 416.926,801.059C416.565,799.223 413.984,785.449 410.845,785.275C390.57,784.149 363.069,798.404 359.25,800.384C355.059,802.556 348.029,800.342 354.31,791.203C367.259,772.365 388.539,762.681 407.953,762.602C413.034,762.581 414.478,765.133 420.317,757.682C427.892,748.017 438.987,748.124 439.759,742.425C439.954,740.987 439.914,739.525 440.081,738.084C440.459,734.818 443.606,734.964 445.376,737.283C449.871,743.173 449.691,733.457 453.325,734.233C457.114,735.042 457.981,742.114 460.659,742.611C491.162,748.271 485.058,758.308 493.564,778.852C505.14,806.81 542.915,797.724 537.861,869.898C534.126,923.241 488.885,929.307 457.881,932.481C457.321,932.724 456.413,932.936 455.059,933.098C445.428,934.249 444.139,933.913 429.88,934.849C415.621,935.786 404.52,933.098 404.52,933.098C404.52,933.098 404.49,933.044 404.443,932.949ZM448.127,928.922C449.477,927.934 451.436,928.025 454.832,927.098L459.197,926.853C471.338,927.192 504.625,923.491 521.584,903.108C537.535,883.937 542.117,824.249 511.536,804.703C473.935,780.67 494.322,755.872 467.962,748.527C459.485,746.165 456.13,750.225 454.637,744.034C453.557,739.558 450.161,746.175 447.423,746.492C441.096,747.224 442.024,749.445 436.039,751.864C423.495,756.933 413.673,771.297 418.236,787.9C426.251,817.062 418.687,817.15 400.741,839.272C385.676,857.841 381.387,883.851 390.582,902.063C393.537,907.916 388.515,906.809 387.861,906.094C385.54,903.557 384.406,901.924 383.097,905.117C374.06,927.155 404.133,926.821 408.596,930.04C411.774,930.229 416.482,930.13 426.288,930.419C435.1,930.68 443.528,929.638 448.127,928.922Z" style="fill:rgb(62,42,30);" />
        <g transform="matrix(1.464844,0,0,1.464844,0,34.243789)">
            <path d="M282.26,503.449C281.492,508.45 281.503,509.298 279.503,509.52C253.175,512.443 254.038,515.99 245.507,519.553C240.239,521.754 255.744,499.432 280.507,500.385C283.442,500.498 282.393,502.514 282.26,503.449Z" style="fill:rgb(240,192,157);" />
        </g>
        <g transform="matrix(1.464844,0,0,1.464844,0,34.243789)">
            <path d="M250.959,587.358C253.994,596.661 254.308,596.505 256.625,599.398C259.651,603.177 254.29,605.772 249.818,602.093C238.109,592.459 237.711,588.051 241.517,588.23C244.808,588.385 242.645,586.038 243.85,584.859C244.909,583.822 247.034,587.036 247.896,584.815C248.592,583.021 248.525,583.001 248.733,582.914C249.715,582.498 249.46,583.205 250.959,587.358Z" style="fill:rgb(239,192,157);" />
        </g>
        <g transform="matrix(1.464844,0,0,1.464844,0,34.243789)">
            <path d="M305.286,504.349C308.783,505.503 309.567,504.901 310.773,508.405C314.484,519.186 294.593,520.662 299.445,508.148C303.499,507.333 303.309,506.836 305.286,504.349Z" style="fill:rgb(245,131,110);" />
        </g>
        <g transform="matrix(1.464844,0,0,1.464844,0,34.243789)">
            <path d="M305.286,504.349C303.309,506.836 303.499,507.333 299.445,508.148C298.86,507.934 293.224,505.866 294.221,502.365C295.531,497.765 297.637,507.26 301.289,504.218C302.329,503.351 305.023,498.684 305.286,504.349Z" style="fill:rgb(72,38,21);" />
        </g>
        <g transform="matrix(1.464844,0,0,1.464844,0,34.243789)">
            <path d="M311.14,588.594C311.284,590.224 311.427,591.854 311.571,593.484C310.363,596.214 310.353,596.854 307.33,596.503C308.428,594.136 308.581,594.185 308.355,591.532C309.109,588.497 309.796,588.996 311.14,588.594Z" style="fill:rgb(73,46,30);" />
        </g>
        <g transform="matrix(1.464844,0,0,1.464844,0,34.243789)">
            <path d="M305.738,562.575C305.587,562.838 303.15,567.064 302.481,564.513C301.896,562.283 305.504,555.395 306.489,558.505C306.973,560.035 306.481,560.003 305.738,562.575Z" style="fill:rgb(67,38,20);" />
        </g>
        <g transform="matrix(1.464844,0,0,1.464844,0,34.243789)">
            <path d="M325.742,523.289C324.483,521.676 324.437,521.715 324.382,521.547C322.884,516.963 329.785,522.096 330.318,524.49C331.149,528.217 326.022,523.544 325.742,523.289Z" style="fill:rgb(69,39,19);" />
        </g>
        <g transform="matrix(1.464844,0,0,1.464844,0,34.243789)">
            <path d="M337.113,555.434C338.307,551.398 338.118,551.274 338.733,550.792C341.878,548.324 339.861,556.165 339.743,556.624C339.686,556.847 337.694,560.491 337.113,555.434Z" style="fill:rgb(68,36,14);" />
        </g>
        <g transform="matrix(1.464844,0,0,1.464844,0,34.243789)">
            <path d="M343.429,559.229C343,558.738 341.784,559.269 342.226,556.491C342.296,556.053 343.362,549.348 345.143,551.769C347.238,554.616 343.819,558.756 343.429,559.229Z" style="fill:rgb(70,38,21);" />
        </g>
        <g transform="matrix(1.464844,0,0,1.464844,0,34.243789)">
            <path d="M332.319,518.68C335.523,522.742 331.626,521.825 331.414,521.69C327.875,519.427 326.165,515.306 329.543,516.389C329.817,516.477 329.749,516.558 332.319,518.68Z" style="fill:rgb(69,39,19);" />
        </g>
        <g transform="matrix(1.464844,0,0,1.464844,0,34.243789)">
            <path d="M298.425,559.467C299.761,556.841 299.431,556.57 300.431,556.311C303.37,555.55 300.993,562.363 299.467,563.409C296.896,565.17 298.34,559.782 298.425,559.467Z" style="fill:rgb(67,35,15);" />
        </g>
        <g transform="matrix(1.464844,0,0,1.464844,0,34.243789)">
            <path d="M296.522,618.552C294.26,619.65 294.295,619.556 292.037,620.636C292.099,620.272 292.75,616.447 295.096,617.17C295.729,617.365 295.89,618.357 296.522,618.552Z" style="fill:rgb(234,236,235);" />
        </g>
        <g transform="matrix(1.464844,0,0,1.464844,0,34.243789)">
            <path d="M312.766,594.13C313.671,594.924 314.576,595.719 315.482,596.513C313.888,597.407 313.729,598.224 312.771,597.16C312.104,596.419 312.469,596.346 312.766,594.13Z" style="fill:rgb(102,73,56);" />
        </g>
    </g>
    </svg>