<?xml version='1.0' encoding='utf-8'?>
<svg xmlns="http://www.w3.org/2000/svg" viewBox="366.88 770.30 216.55 178.90" version="1.1" style="fill-rule:evenodd;clip-rule:evenodd;stroke-linejoin:round;stroke-miterlimit:2;"><g><g>
        <path d="M450.541,929.142C441.877,926.767 441.946,927.212 432.913,926.272C423.389,925.284 423.45,925.294 422.627,925.205C378.557,920.447 359.876,862.084 402.525,833.69C420.897,821.459 441.364,820.894 441.587,820.86C448.578,819.781 442.458,798.15 457.713,801.117C471.48,803.795 475.293,815.977 478.688,805.39C489.986,770.149 543.558,782.44 547.152,792.044C552.05,805.131 524.537,806.581 529.483,812.61C531.775,815.404 557.358,794.153 559.817,814.102C562.105,832.671 554.624,848.956 554.834,850.619C556.236,861.749 571.729,872.143 571.823,874.098C572.229,882.538 549.739,896.708 549.743,900.467C549.758,916.592 533.339,917.981 524.29,910.043C520.937,907.102 515.558,910.441 503.375,908.704L498.688,908.678C498.11,908.612 491.474,907.85 491.467,907.85C486.712,908.347 488.258,911.698 479.646,914.523C479.32,914.524 477.013,914.534 475.569,914.425C473.749,914.262 473.892,914.289 473.749,914.262C472.254,913.977 472.454,913.597 470.961,913.313L469.355,912.769C464.448,909.848 465.882,907.9 462.012,906.864C452.705,904.372 459.136,911.468 457.781,920.97C458.251,924.786 458.301,924.626 458.452,928.454L456.201,930.841L453.21,930.469L450.541,929.142ZM454.575,922.625C451.072,915.628 456.614,905.78 437.342,885.691C435.385,883.953 415.637,866.416 417.45,859.716C419.507,852.115 419.492,863.179 432.203,874.793C452.766,893.582 450.686,897.166 453.546,900.295C455.659,902.606 461.049,902.36 461.949,901.668C467.58,897.34 442.61,889.289 436.206,862.281C433.431,850.577 445.42,853.653 448.688,846.148C449.308,844.725 448.347,844.838 444.718,827.158C444.323,825.237 441.942,825.362 441.66,825.376C382.437,828.471 362.392,891.889 407.359,915.724C426.442,925.806 443.584,918.984 451.721,925.572C451.844,925.498 453.543,926.065 454.431,923.954C454.707,923.298 454.287,923.309 454.575,922.625Z" style="fill:rgb(49,27,20);" />
        <path d="M443.268,856.881C443.745,857.687 446.063,861.608 454.909,858.167C459.373,856.431 492.488,828.938 497.378,860.894C498.027,865.132 499.045,864.629 500.159,866.299C484.963,868.897 499.573,876.799 503.091,884.39C499.857,890.125 498.913,891.202 503.738,895.651C510.967,902.208 524.682,889.94 508.862,883.324C508.658,883.238 508.728,883.169 507.051,881.24C512.261,875.889 520.436,868.862 507.677,866.275C509.289,863.565 509.897,864.021 510.813,861.004C511.416,859.016 516.305,842.901 533.937,849.186C543.446,852.575 549.893,876.489 561.847,871.042C564.992,873.3 564.975,873.281 565.244,873.481C569.571,876.692 555.947,888.784 549.806,892.754C544.581,896.132 541.615,888.897 532.581,890.77C520.397,893.295 521.355,904.396 520.583,904.735C520.03,904.978 505.907,904.823 504.631,904.809C496.806,903.675 496.547,905.34 492.954,903.339C487.705,900.417 492.385,894.514 479.676,890.729C474.469,890.754 474.345,889.847 469.737,892.165C458.946,897.591 445.231,874.228 442.829,868.344C439.169,859.376 440.316,858.677 443.268,856.881Z" style="fill:rgb(250,238,232);" />
        <g transform="matrix(1.464844,0,0,1.464844,0.001465,0.308827)">
            <path d="M298.558,604.421C297.093,606.455 297.023,606.406 296.976,606.618C295.822,611.808 293.872,609.776 288.523,609.666C285.586,609.606 287.069,611.243 286.745,616.546C286.56,619.585 278.973,617.25 278.502,619.501C277.924,622.258 278.772,622.267 278.089,624.923C247.392,608.652 261.076,565.359 301.505,563.246C301.698,563.236 303.324,563.151 303.593,564.463C306.071,576.532 306.727,576.455 306.304,577.427C304.073,582.55 295.888,580.45 297.782,588.439C302.154,606.877 319.2,612.374 315.356,615.328C314.742,615.8 311.062,615.968 309.62,614.391C307.668,612.255 309.087,609.808 295.05,596.981C286.372,589.052 286.382,581.5 284.978,586.688C283.741,591.262 297.222,603.234 298.558,604.421Z" style="fill:rgb(250,145,108);" />
        </g>
        <g transform="matrix(1.464844,0,0,1.464844,0.001465,0.308827)">
            <path d="M302.603,584.753C306.123,582.247 306.514,582.749 309.073,579.186C311.198,576.227 303.166,562.197 308.316,551.409C310.414,547.014 323.478,553.041 325.747,559.418C329.926,571.159 359.174,571.542 361.627,561.526C361.923,560.314 363.169,555.228 374.573,552.839C383.97,550.871 377.824,572.776 377.353,574.454C375.734,580.225 372.799,582.085 383.553,594.42C375.392,598.139 370.992,581.814 364.5,579.5C352.463,575.21 349.126,586.211 348.714,587.568C348.089,589.628 347.674,589.316 346.573,591.166C344.862,591.172 343.151,591.177 341.441,591.182C340.68,590.043 339.985,590.386 339.543,587.493C336.204,565.677 313.598,584.446 310.55,585.631C304.511,587.98 302.929,585.304 302.603,584.753Z" style="fill:rgb(244,146,112);" />
        </g>
        <g transform="matrix(1.464844,0,0,1.464844,0.001465,0.308827)">
            <path d="M358.776,545.939C355.142,552.359 365.13,563.554 349.503,565.52C343.962,566.217 326.806,565.226 328.658,554.524C331.869,535.972 351.129,535.303 350.844,538.487C350.638,540.796 348.176,545.637 354.677,542.904C359.117,541.037 363.91,547.341 363.679,542.504C363.536,539.502 362.627,537.635 365.491,538.541C378.396,542.624 362.694,550.139 360.745,547.339C360.021,546.299 359.956,546.462 358.776,545.939Z" style="fill:rgb(175,226,231);" />
        </g>
        <g transform="matrix(1.464844,0,0,1.464844,0.001465,0.308827)">
            <path d="M298.558,604.421C311.714,618.135 307.931,624.858 310.322,629.635C310.126,630.101 310.412,630.094 310.224,630.542C309.618,631.983 308.458,631.596 308.374,631.646C302.819,627.149 291.117,631.806 278.089,624.923C278.772,622.267 277.924,622.258 278.502,619.501C278.973,617.25 286.56,619.585 286.745,616.546C287.069,611.243 285.586,609.606 288.523,609.666C293.872,609.776 295.822,611.808 296.976,606.618C297.023,606.406 297.093,606.455 298.558,604.421Z" style="fill:rgb(251,238,232);" />
        </g>
        <g transform="matrix(1.464844,0,0,1.464844,0.001465,0.308827)">
            <path d="M346.536,560.435C342.357,558.414 342.251,559.929 339.56,560.77C335.863,561.925 337.245,559.39 337.785,555.524C338.293,551.894 334.667,553.156 334.543,549.499C334.498,548.165 339.04,547.411 339.464,547.341C342.172,546.891 344.205,539.178 346.393,543.564C348.467,547.723 348.937,547.395 353.313,548.873C356.378,549.907 350.949,554.321 350.74,554.646C349.308,556.869 353.299,564.049 346.536,560.435Z" style="fill:rgb(36,30,28);" />
        </g>
        <g transform="matrix(1.464844,0,0,1.464844,0.001465,0.308827)">
            <path d="M310.838,556.534C310.92,556.331 311.046,553.714 313.547,554.343C316.286,555.032 320.562,559.363 321.089,559.896C325.842,564.71 322.507,566.465 316.325,571.274C309.679,576.443 310.765,557.79 310.838,556.534Z" style="fill:rgb(55,22,13);" />
        </g>
        <g transform="matrix(1.464844,0,0,1.464844,0.001465,0.308827)">
            <path d="M368.364,571.628C367.258,570.407 361.329,566.567 364.698,562.695C366.342,560.806 369.678,558.595 371.605,557.711C376.938,555.266 376.905,558.627 376.266,564.476C375.409,572.328 374.046,577.096 368.364,571.628Z" style="fill:rgb(55,22,13);" />
        </g>
        <path d="M503.091,884.39C499.573,876.799 484.963,868.897 500.159,866.299L507.677,866.275C520.436,868.862 512.261,875.889 507.051,881.24C505.269,883.615 506.908,883.911 506.405,886.807L507.474,887.591C507.233,888.071 506.292,887.867 506.051,888.347C505.915,888.618 505.05,890.345 505.879,892.141C506.165,892.761 507.289,892.671 507.575,893.291C505.371,894.143 505.454,894.038 503.738,895.651C498.913,891.202 499.857,890.125 503.091,884.39Z" style="fill:rgb(39,23,18);" />
        <g transform="matrix(1.464844,0,0,1.464844,0.001465,0.308827)">
            <path d="M362.502,620.496C354.672,615.576 361.184,610.543 366.466,610.853C374.827,611.345 374.139,623.825 362.502,620.496Z" style="fill:rgb(243,147,113);" />
        </g>
        <path d="M470.35,908.224C460.772,898.11 477.642,888.49 485.97,900.211C488.75,907.506 485.349,907.208 478.603,909.971C476.943,910.65 477.05,911.075 475.314,910.629C473.577,910.183 473.721,910.728 471.872,910.842L470.35,908.224Z" style="fill:rgb(244,146,112);" />
        <g transform="matrix(1.464844,0,0,1.464844,0.001465,0.308827)">
            <path d="M340.912,553.377C339.965,551.775 339.008,551.54 340.441,550.412C341.692,549.427 342.106,550.265 343.146,549.07C345.103,546.822 348.917,551.462 348.434,552.463C347.088,555.254 347.646,556.697 344.568,556.112C342.751,555.767 340.938,557.307 340.912,553.377Z" style="fill:rgb(232,173,170);" />
        </g>
        <g transform="matrix(1.464844,0,0,1.464844,0.001465,0.308827)">
            <path d="M346.146,601.383C347.291,602.699 347.243,602.747 347.382,602.805C358.182,607.322 348.819,615.697 343.884,611.22C345.056,610.119 344.999,610.191 346.504,609.609C352.057,608.032 346.723,605.836 346.435,605.718L345.705,605.183C346.048,603.206 344.93,603.004 346.146,601.383Z" style="fill:rgb(41,24,20);" />
        </g>
        <g transform="matrix(1.464844,0,0,1.464844,0.001465,0.308827)">
            <path d="M366.269,586.696C366.715,587.025 367.279,587.171 367.725,587.5C375.113,592.945 366.365,600.539 363.172,593.5L362.551,592.766C366.198,590.63 366.61,590.221 366.269,586.696Z" style="fill:rgb(240,176,176);" />
        </g>
        <g transform="matrix(1.464844,0,0,1.464844,0.001465,0.308827)">
            <path d="M366.269,586.696C366.61,590.221 366.198,590.63 362.551,592.766C362.508,592.768 358.991,593.78 356.763,590.345C356.445,589.854 355.449,587.289 356.168,586.27C358.694,582.696 359.684,592.619 362.843,588.792C364.257,587.077 364.009,586.32 366.269,586.696Z" style="fill:rgb(42,26,22);" />
        </g>
        <g transform="matrix(1.464844,0,0,1.464844,0.001465,0.308827)">
            <path d="M323.459,585.498C324.229,580.981 325.937,583.6 326.041,583.823C327.57,587.117 328.283,589.357 330.427,586.442C332.044,584.243 332.434,581.861 333.674,584.337C333.767,584.523 334.953,591.911 326.585,590.194C324.494,588.384 324.191,588.562 323.459,585.498Z" style="fill:rgb(42,24,21);" />
        </g>
        <g transform="matrix(1.464844,0,0,1.464844,0.001465,0.308827)">
            <path d="M323.459,585.498C324.191,588.562 324.494,588.384 326.585,590.194C318.754,597.412 315.594,587.162 320.698,584.929C322.09,584.32 322.025,584.941 323.459,585.498Z" style="fill:rgb(243,176,176);" />
        </g>
        <g transform="matrix(1.464844,0,0,1.464844,0.001465,0.308827)">
            <path d="M317.413,560.598C319.147,562.346 321.392,563.544 316.389,567.33C314.17,569.009 314.155,567.193 313.864,564.452C313.817,564.005 313.328,559.395 313.873,558.84C314.639,558.06 314.741,558.741 317.413,560.598Z" style="fill:rgb(246,239,234);" />
        </g>
        <g transform="matrix(1.464844,0,0,1.464844,0.001465,0.308827)">
            <path d="M369.507,562.509C370.278,562.06 370.915,561.403 371.687,560.954C374.967,559.045 373.167,572.531 369.955,569.003C367.205,565.984 366.251,565.062 369.507,562.509Z" style="fill:rgb(246,238,232);" />
        </g>
        <g transform="matrix(1.464844,0,0,1.464844,0.001465,0.308827)">
            <path d="M358.414,536.933C365.134,540.299 353.987,540.123 353.861,538.499C353.722,536.71 358.03,536.915 358.414,536.933Z" style="fill:rgb(208,171,170);" />
        </g>
        <g transform="matrix(1.464844,0,0,1.464844,0.001465,0.308827)">
            <path d="M309.391,634.989C310.071,635.074 310.752,635.159 311.432,635.244C311.676,635.504 316.948,641.138 312.454,639.582C309.514,638.564 309.583,638.104 309.391,634.989Z" style="fill:rgb(243,242,242);" />
        </g>
        <g transform="matrix(1.464844,0,0,1.464844,0.001465,0.308827)">
            <path d="M346.435,605.718C346.723,605.836 352.057,608.032 346.504,609.609C346.308,609.186 345.541,609.247 345.346,608.824C344.78,607.598 345.37,606.419 345.463,606.234C345.628,605.906 346.27,606.046 346.435,605.718Z" style="fill:rgb(226,179,182);" />
        </g>
    </g>
    </g></svg>