<?xml version='1.0' encoding='utf-8'?>
<svg xmlns="http://www.w3.org/2000/svg" viewBox="103.61 177.06 190.13 203.70" version="1.1" style="fill-rule:evenodd;clip-rule:evenodd;stroke-linejoin:round;stroke-miterlimit:2;"><g><g>
        <g transform="matrix(1.464844,0,0,1.464844,0.001465,0.308827)">
            <path d="M78.183,208.502C79.089,203.243 81.349,207.284 86.484,208.566C91.194,209.743 95.045,208.974 96.538,208.762C114.436,206.215 114.098,210.094 121.605,213.047C122.207,213.284 124.801,211.518 124.4,209.541C124.195,208.532 106.835,205.187 97.759,189.352C95.649,185.67 99.312,185.608 103.267,181.297C108.507,175.587 103.289,173.788 99.782,164.395C86.17,127.933 121.684,150.385 124.33,149.08C134.876,143.876 134.842,143.43 146.526,142.722C148.834,142.582 150.163,139.587 151.852,137.814C179.901,108.374 174.088,155.102 175.728,157.355C184.844,169.874 189.347,169.608 191.495,170.51C196.486,172.606 188.147,185.35 187.427,186.451C181.65,195.279 175.941,199.067 175.538,199.524C174.174,201.075 178.718,201.658 179.4,205.518C180.836,213.647 169.244,214.437 169.89,217.429C170.029,218.07 171.593,225.307 171.637,225.439C173.452,230.831 174.036,222.924 179.536,221.63C189.659,219.249 186.691,235.945 186.51,238.501C185.755,249.176 174.204,246.632 162.507,245.406C158.04,244.937 160.795,251.296 152.462,252.016C133.891,253.622 124.341,247.2 122.296,245.825C120.716,244.763 83.295,253.556 78.183,208.502Z" style="fill:rgb(52,24,16);" />
        </g>
        <path d="M255.039,249.304C260.97,251.309 260.908,251.348 262.856,251.866C269.559,253.646 270.314,251.044 270.48,250.99C271.006,251.203 276.87,253.579 277.037,253.712C279.989,256.048 266.757,290.171 232.052,300.905C181.268,316.613 144.72,281.914 148.332,274.731C150.055,271.307 151.363,272.701 153.925,269.891C154.966,270.325 154.967,272.122 156.007,272.556C156.885,272.922 164.051,269.925 167.603,267.447C177.05,260.857 187.626,229.279 209.286,263.828C195.427,273.438 213.507,274.304 215.739,279.458C218.065,284.831 204.525,278.199 205.836,285.216C208.766,300.904 233.187,304.116 231.61,283.798C230.621,271.059 224.624,279.888 221.881,279.8C214.085,279.548 234.998,261.717 217.525,261.917C219.209,258.031 219.243,238.568 233.63,238.721C239.456,238.783 245.759,243.78 246.652,244.488L251.161,245.869C252.875,248.001 252.73,248.027 255.039,249.304Z" style="fill:rgb(251,238,233);" />
        <path d="M248.767,227.808C253.076,232.751 253.051,232.717 253.42,233.147C254.106,233.945 253.965,233.944 254.709,234.811C262.563,243.026 261.499,243.913 270.48,250.99C270.314,251.044 269.559,253.646 262.856,251.866C260.908,251.348 260.97,251.309 255.039,249.304C252.73,248.027 252.875,248.001 251.161,245.869L246.652,244.488C245.759,243.78 239.456,238.783 233.63,238.721C219.243,238.568 219.209,258.031 217.525,261.917L209.286,263.828C187.626,229.279 177.05,260.857 167.603,267.447C164.051,269.925 156.885,272.922 156.007,272.556C154.967,272.122 154.966,270.325 153.925,269.891C155.913,266.938 162.083,260.423 159.166,255.78C157.75,253.526 148.529,238.848 146.35,225.067C143.576,207.519 164.326,216.179 178.168,223.329C185.507,227.119 206.622,199.551 242.713,223.218C246.011,225.265 246.049,225.09 248.767,227.808Z" style="fill:rgb(247,145,109);" />
        <g transform="matrix(1.464844,0,0,1.464844,0.001465,0.308827)">
            <path d="M151.154,236.54C151.159,235.999 150.415,232.671 152.771,230.88C153.706,230.169 155.942,229.755 157.141,231.689C157.917,232.939 157.415,243.331 156.898,245.576C156.53,247.174 155.695,250.798 136.557,248.126C110.575,244.5 121.947,219.356 126.712,212.661C130.906,206.769 136.058,214.826 159.626,207.974C165.318,206.319 173.125,229.59 164.291,239.319C158.672,245.507 160.776,235.16 160.581,232.492C160.244,227.884 155.419,226.276 152.498,227.496C143.984,231.053 152.191,218.998 147.771,214.182C142.963,208.945 149.394,227.936 142.514,227.181C136.721,226.544 137.086,215.523 136.575,214.449C135.831,212.888 132.532,213.846 134.677,222.459C135.694,226.546 132.862,225.007 131.416,226.425C128.215,229.563 136.772,228.099 137.525,228.429C141.361,230.109 141.335,229.959 145.558,230.106C148.922,230.222 147.354,235.283 148.397,238.54C148.48,238.8 151.193,242.084 151.154,236.54Z" style="fill:rgb(247,145,109);" />
        </g>
        <g transform="matrix(1.464844,0,0,1.464844,0.001465,0.308827)">
            <path d="M100.519,211.196C102.147,211.126 118.049,210.44 120.164,216.586C121.386,220.135 114.042,222.937 118.959,240.42C119.17,241.171 119.726,243.989 109.479,242.684C99.018,241.351 94.236,235.935 92.507,234.491C92.947,232.985 93.051,233.003 92.657,231.532C90.074,221.891 98.616,226.091 100.274,225.122C101.352,224.491 98.927,218.921 98.707,218.416C97.134,214.805 99.902,215.108 100.519,211.196Z" style="fill:rgb(249,145,109);" />
        </g>
        <g transform="matrix(1.464844,0,0,1.464844,0.001465,0.308827)">
            <path d="M148.496,178.591C160.425,178.455 146.148,190.627 151.47,190.799C153.342,190.86 157.436,184.832 158.111,193.529C159.188,207.399 142.517,205.206 140.516,194.497C139.621,189.706 148.865,194.234 147.277,190.566C145.753,187.047 133.41,186.456 142.871,179.896C144.746,179.461 146.621,179.026 148.496,178.591Z" style="fill:rgb(43,24,19);" />
        </g>
        <g transform="matrix(1.464844,0,0,1.464844,0.001465,0.308827)">
            <path d="M100.519,211.196C99.902,215.108 97.134,214.805 98.707,218.416C98.927,218.921 101.352,224.491 100.274,225.122C98.616,226.091 90.074,221.891 92.657,231.532C93.051,233.003 92.947,232.985 92.507,234.491C90.503,232.114 85.104,227.926 81.525,212.497C80.987,210.177 82.263,210.475 84.584,211.218C89.325,212.737 99.256,211.37 100.519,211.196Z" style="fill:rgb(251,237,229);" />
        </g>
        <g transform="matrix(1.464844,0,0,1.464844,0.001465,0.308827)">
            <path d="M177.293,229.502C177.351,229.036 177.851,225.004 180.515,224.591C185.416,223.831 183.723,234.23 183.436,238.494C183.161,242.607 181.184,244.025 168.55,243.091C163.765,242.737 169.231,239.622 170.676,233.547C172.233,227 174.197,232.58 175.184,233.823C177.722,237.024 177.315,229.887 177.293,229.502Z" style="fill:rgb(244,146,113);" />
        </g>
        <g transform="matrix(1.464844,0,0,1.464844,0.001465,0.308827)">
            <path d="M114.729,166.67C113.268,168.401 110.786,172.873 106.716,164.392C104.425,159.617 100.648,148.928 106.374,150.872C107.415,151.225 114.061,153.482 118.28,157.721C120.625,160.077 116.575,164.065 114.729,166.67Z" style="fill:rgb(52,22,12);" />
        </g>
        <g transform="matrix(1.464844,0,0,1.464844,0.001465,0.308827)">
            <path d="M163.595,136.635C159.189,140.023 155.666,146.124 152.652,143.31C151.044,141.809 165.859,125.535 169.405,133.547C172.465,140.46 173.854,154.644 170.678,152.209C166.278,148.835 171.568,133.263 163.595,136.635Z" style="fill:rgb(234,149,121);" />
        </g>
        <g transform="matrix(1.464844,0,0,1.464844,0.001465,0.308827)">
            <path d="M173.665,210.763C167.425,214.208 167.046,210.603 165.583,207.467C163.178,202.317 184.23,201.871 173.665,210.763Z" style="fill:rgb(240,148,117);" />
        </g>
        <g transform="matrix(1.464844,0,0,1.464844,0.001465,0.308827)">
            <path d="M108.353,160.559C106.859,156.106 104.975,155.035 107.516,154.606C108.297,154.474 113.572,157.764 114.475,158.529C116.8,160.498 111.965,165.273 111.471,165.303C110.173,165.382 110.491,164.739 108.353,160.559Z" style="fill:rgb(245,237,235);" />
        </g>
        <g transform="matrix(1.464844,0,0,1.464844,0.001465,0.308827)">
            <path d="M126.775,180.487C127.827,183.335 127.436,183.824 130.292,185.028C126.356,195.228 118.595,185.102 123.656,181.719C123.879,181.57 123.887,181.634 126.775,180.487Z" style="fill:rgb(240,176,174);" />
        </g>
        <g transform="matrix(1.464844,0,0,1.464844,0.001465,0.308827)">
            <path d="M150.515,194.557C153.26,193.502 153.235,193.487 153.48,193.418C157.975,192.14 153.465,204.244 146.83,199.071C141.539,194.947 149.157,194.779 150.515,194.557Z" style="fill:rgb(240,177,177);" />
        </g>
        <g transform="matrix(1.464844,0,0,1.464844,0.001465,0.308827)">
            <path d="M163.097,172.682C167.343,173.1 168.83,172.24 169.187,176.509C169.202,176.684 167.931,184.932 162.446,178.432C163.563,175.698 163.364,175.669 163.097,172.682Z" style="fill:rgb(242,178,176);" />
        </g>
        <g transform="matrix(1.464844,0,0,1.464844,0.001465,0.308827)">
            <path d="M126.775,180.487C126.38,173.159 131.01,175.971 131.687,178.436C133.116,183.646 131.044,184.268 130.292,185.028C127.436,183.824 127.827,183.335 126.775,180.487Z" style="fill:rgb(38,25,21);" />
        </g>
        <g transform="matrix(1.464844,0,0,1.464844,0.001465,0.308827)">
            <path d="M163.097,172.682C163.364,175.669 163.563,175.698 162.446,178.432C162.177,178.464 161.905,179.442 160.396,178.678C156.091,176.499 158.611,162.583 163.097,172.682Z" style="fill:rgb(38,21,15);" />
        </g>
        <g transform="matrix(1.464844,0,0,1.464844,0.001465,0.308827)">
            <path d="M161.591,142.582C166.995,136.12 166.739,148.445 164.474,147.694C160.732,146.454 159.406,145.804 161.591,142.582Z" style="fill:rgb(245,240,237);" />
        </g>
    </g>
    </g></svg>